<svg width="32" height="32" viewBox="0 0 32 32" fill="none" xmlns="http://www.w3.org/2000/svg">
<path d="M4.125 20C3.57187 20 3.125 20.4469 3.125 21V29C3.125 29.5531 3.57187 30 4.125 30H6.375V20H4.125Z" fill="#F3F3F3"/>
<path d="M13.75 11C13.1969 11 12.75 11.4469 12.75 12V29C12.75 29.5531 13.1969 30 13.75 30H16V11H13.75Z" fill="#F3F3F3"/>
<path d="M23.375 2C22.8219 2 22.375 2.44687 22.375 3V29C22.375 29.5531 22.8219 30 23.375 30H25.625L25.5 2H23.375Z" fill="#F3F3F3"/>
<path d="M18.25 30C18.8031 30 19.25 29.5531 19.25 29V12C19.25 11.4469 18.8031 11 18.25 11H16V30H18.25Z" fill="#F3F3F3"/>
<path d="M8.625 30C9.17813 30 9.625 29.5531 9.625 29V21C9.625 20.4469 9.17813 20 8.625 20H6.375V30H8.625Z" fill="#F3F3F3"/>
<path d="M16 30H13.75C13.1969 30 12.75 29.5531 12.75 29V12C12.75 11.4469 13.1969 11 13.75 11H16M16 30H18.25C18.8031 30 19.25 29.5531 19.25 29V12C19.25 11.4469 18.8031 11 18.25 11H16M16 30V11M6.375 30H4.125C3.57187 30 3.125 29.5531 3.125 29V21C3.125 20.4469 3.57187 20 4.125 20H6.375M6.375 30H8.625C9.17813 30 9.625 29.5531 9.625 29V21C9.625 20.4469 9.17813 20 8.625 20H6.375M6.375 30V20M25.625 30H23.375C22.8219 30 22.375 29.5531 22.375 29V3C22.375 2.44687 22.8219 2 23.375 2H25.5M25.625 30H27.875C28.4281 30 28.875 29.5531 28.875 29V3C28.875 2.44687 28.4281 2 27.875 2H25.5M25.625 30L25.5 2" stroke="#F3F3F3"/>
</svg>
