{"asset":{"version":"2.0","generator":"VECTARY"},"nodes":[{"translation":[0.16713601419969018,0.16871321486037008,0.30498877370072536],"scale":[1,1,1],"rotation":[-0.13616111732153185,0.24636635015062527,0.03498236621271206,0.9589264860756382],"name":"Camera","camera":0},{"translation":[0,0,0],"scale":[0.004,0.004,0.004],"rotation":[-0.7071067811865475,0,0,0.7071067811865476],"name":"Plane","mesh":0},{"translation":[0,0,0],"scale":[0.001,0.001,0.001],"rotation":[-0.7071067811865475,0,0,0.7071067811865476],"name":"Phone 1","children":[3,4,5,6,7,8,9,10,11,12,13,14,15,16,17]},{"translation":[0,0,0],"scale":[10,10.000000000000002,10.000000000000002],"rotation":[0.7071067811865475,0,0,0.7071067811865476],"name":"Screen","mesh":1},{"translation":[0,0,0],"scale":[10,10.000000000000002,10.000000000000002],"rotation":[0.7071067811865475,0,0,0.7071067811865476],"name":"Lens 1","mesh":2},{"translation":[0,0,0],"scale":[10,10.000000000000002,10.000000000000002],"rotation":[0.7071067811865475,0,0,0.7071067811865476],"name":"Lens 2","mesh":3},{"translation":[0,0,0],"scale":[10,10.000000000000002,10.000000000000002],"rotation":[0.7071067811865475,0,0,0.7071067811865476],"name":"Lens 3","mesh":4},{"translation":[0,0,0],"scale":[10,10.000000000000002,10.000000000000002],"rotation":[0.7071067811865475,0,0,0.7071067811865476],"name":"Flash","mesh":5},{"translation":[0,0,0],"scale":[10,10.000000000000002,10.000000000000002],"rotation":[0.7071067811865475,0,0,0.7071067811865476],"name":"Display Rim","mesh":6},{"translation":[0,0,0],"scale":[10,10.000000000000002,10.000000000000002],"rotation":[0.7071067811865475,0,0,0.7071067811865476],"name":"Connector","mesh":7},{"translation":[0,0,0],"scale":[10,10.000000000000002,10.000000000000002],"rotation":[0.7071067811865475,0,0,0.7071067811865476],"name":"Camera Rims 1","mesh":8},{"translation":[0,0,0],"scale":[10,10.000000000000002,10.000000000000002],"rotation":[0.7071067811865475,0,0,0.7071067811865476],"name":"Camera Rims 2","mesh":9},{"translation":[0,0,0],"scale":[10,10.000000000000002,10.000000000000002],"rotation":[0.7071067811865475,0,0,0.7071067811865476],"name":"Sensors","mesh":10},{"translation":[0.07259488105773926,21.77268981933595,70.66262217238544],"scale":[10,10.000000000000002,10.000000000000002],"rotation":[0.7071067811865475,0,0,0.7071067811865476],"name":"Rear Glass","mesh":11},{"translation":[17.10100531578064,21.65097951889041,122.12204933166504],"scale":[10,10.000000000000002,10.000000000000002],"rotation":[0.7071067811865475,0,0,0.7071067811865476],"name":"Camera Glass","mesh":12},{"translation":[0.07999986410140991,-18.41601014137268,1.4590249955654186],"scale":[10,10.000000000000002,10.000000000000002],"rotation":[0.7071067811865475,0,0,0.7071067811865476],"name":"Screws","mesh":13},{"translation":[0,0,0],"scale":[10,10.000000000000002,10.000000000000002],"rotation":[0.7071067811865475,0,0,0.7071067811865476],"name":"Body","mesh":14},{"translation":[0,0,0],"scale":[10,10.000000000000002,10.000000000000002],"rotation":[0.7071067811865475,0,0,0.7071067811865476],"name":"Antennas","mesh":15},{"translation":[0.1529392219669558,0.2285248571219716,0.6703232202651749],"scale":[1,1,1],"rotation":[-0.11566586554714897,0.05457189011102331,0.006364500541246876,0.9917675178638385],"name":"Camera","camera":1}],"cameras":[{"name":"Camera","type":"perspective","extras":{"targetDistance":0.36022706500532564},"perspective":{"aspectRatio":1.0242718446601942,"yfov":0.6108652381980153,"zfar":33.65199366956933,"znear":0.011077788973913368}},{"name":"Camera","type":"perspective","extras":{"targetDistance":1.0697024232178656},"perspective":{"aspectRatio":1.0242718446601942,"yfov":0.6108652381980153,"zfar":60.61475355763466,"znear":0.013206427912444842}}],"materials":[{"pbrMetallicRoughness":{"baseColorFactor":[0,0,0,1],"baseColorTexture":{"index":0,"extensions":{"KHR_texture_transform":{"offset":[0,0],"scale":[1,1],"rotation":0}},"texCoord":0},"metallicFactor":1,"roughnessFactor":1},"name":"_shadow","emissiveFactor":[0,0,0],"extensions":{},"alphaMode":"BLEND","doubleSided":false},{"pbrMetallicRoughness":{"baseColorFactor":[0,0,0,1],"metallicFactor":1,"roughnessFactor":0},"name":"Screen","emissiveTexture":{"index":1,"extensions":{"KHR_texture_transform":{"offset":[0,0],"scale":[1,1],"rotation":0}},"texCoord":0},"emissiveFactor":[1,1,1],"extensions":{},"alphaMode":"OPAQUE","doubleSided":false},{"pbrMetallicRoughness":{"baseColorFactor":[1,1,1,1],"baseColorTexture":{"index":2,"extensions":{"KHR_texture_transform":{"offset":[0,0],"scale":[1,1],"rotation":0}},"texCoord":0},"metallicFactor":0,"roughnessFactor":0},"name":"Lens 4","emissiveFactor":[0,0,0],"extensions":{},"alphaMode":"OPAQUE","doubleSided":false},{"pbrMetallicRoughness":{"baseColorFactor":[1,1,1,1],"baseColorTexture":{"index":2,"extensions":{"KHR_texture_transform":{"offset":[0,0],"scale":[1,1],"rotation":0}},"texCoord":0},"metallicFactor":0,"roughnessFactor":0},"name":"Lens 5","emissiveFactor":[0,0,0],"extensions":{},"alphaMode":"OPAQUE","doubleSided":false},{"pbrMetallicRoughness":{"baseColorFactor":[1,1,1,1],"baseColorTexture":{"index":2,"extensions":{"KHR_texture_transform":{"offset":[0,0],"scale":[1,1],"rotation":0}},"texCoord":0},"metallicFactor":0,"roughnessFactor":0},"name":"Lens 6","emissiveFactor":[0,0,0],"extensions":{},"alphaMode":"OPAQUE","doubleSided":false},{"pbrMetallicRoughness":{"baseColorFactor":[1,1,1,1],"baseColorTexture":{"index":3,"extensions":{"KHR_texture_transform":{"offset":[0,0],"scale":[1,1],"rotation":0}},"texCoord":0},"metallicFactor":0,"roughnessFactor":0},"name":"Flash 1","emissiveFactor":[0.31,0.31,0.31],"extensions":{},"alphaMode":"OPAQUE","doubleSided":false},{"pbrMetallicRoughness":{"baseColorFactor":[0,0,0,1],"metallicFactor":0,"roughnessFactor":0},"name":"Display Rim 1","emissiveFactor":[0,0,0],"extensions":{},"alphaMode":"OPAQUE","doubleSided":false},{"pbrMetallicRoughness":{"baseColorFactor":[0,0,0,1],"metallicFactor":1,"roughnessFactor":0.8},"name":"Connector 1","emissiveFactor":[0,0,0],"extensions":{},"alphaMode":"OPAQUE","doubleSided":false},{"pbrMetallicRoughness":{"baseColorFactor":[0.11926401300504741,0.11657577617857154,0.10871114997903854,1],"metallicFactor":1,"roughnessFactor":0.3},"name":"Camera Rims 3","emissiveFactor":[0,0,0],"extensions":{},"alphaMode":"OPAQUE","doubleSided":false},{"pbrMetallicRoughness":{"baseColorFactor":[0.028991186547107816,0.028991186547107816,0.028991186547107816,1],"metallicFactor":1,"roughnessFactor":0.5},"name":"Camera Rims 4","emissiveFactor":[0,0,0],"extensions":{},"alphaMode":"OPAQUE","doubleSided":false},{"pbrMetallicRoughness":{"baseColorFactor":[0,0,0,1],"metallicFactor":0,"roughnessFactor":0.2},"name":"Sensors 1","emissiveFactor":[0,0,0],"extensions":{},"alphaMode":"OPAQUE","doubleSided":false},{"pbrMetallicRoughness":{"baseColorFactor":[0.1332085131842997,0.13035227805624436,0.11926401300504741,1],"metallicFactor":0,"roughnessFactor":0.3},"name":"Rear Glass 1","emissiveFactor":[0,0,0],"extensions":{},"alphaMode":"OPAQUE","doubleSided":false},{"pbrMetallicRoughness":{"baseColorFactor":[0.1332085131842997,0.13035227805624436,0.11926401300504741,1],"metallicFactor":0,"roughnessFactor":0},"name":"Camera Glass 1","emissiveFactor":[0,0,0],"extensions":{},"alphaMode":"OPAQUE","doubleSided":false},{"pbrMetallicRoughness":{"baseColorFactor":[0.267358060183772,0.267358060183772,0.267358060183772,1],"metallicFactor":1,"roughnessFactor":0.1},"name":"Screws 1","emissiveFactor":[0,0,0],"extensions":{},"alphaMode":"OPAQUE","doubleSided":false},{"pbrMetallicRoughness":{"baseColorFactor":[0.05818717747368543,0.05637409755197975,0.051122050056493396,1],"metallicFactor":1,"roughnessFactor":0.1},"name":"Body 1","emissiveFactor":[0,0,0],"extensions":{},"alphaMode":"OPAQUE","doubleSided":false},{"pbrMetallicRoughness":{"baseColorFactor":[0,0,0,1],"metallicFactor":0,"roughnessFactor":0.2},"name":"Antennas 1","emissiveFactor":[0,0,0],"extensions":{},"alphaMode":"OPAQUE","doubleSided":false}],"textures":[{"sampler":0,"source":0},{"sampler":0,"source":1},{"sampler":0,"source":2},{"sampler":0,"source":3}],"images":[{"uri":"colorTexture&Plane.png","mimeType":"image/png"},{"uri":"Mobile.jpg","mimeType":"image/jpeg"},{"uri":"Camera.jpg","mimeType":"image/jpeg"},{"uri":"Flash_1.jpg","mimeType":"image/jpeg"}],"samplers":[{"wrapS":10497,"wrapT":10497}],"meshes":[{"primitives":[{"mode":4,"attributes":{"POSITION":1,"NORMAL":2,"TEXCOORD_0":3},"material":0,"indices":0}]},{"primitives":[{"mode":4,"attributes":{"POSITION":5,"NORMAL":6,"TEXCOORD_0":7},"material":1,"indices":4}]},{"primitives":[{"mode":4,"attributes":{"POSITION":9,"NORMAL":10,"TEXCOORD_0":11},"material":2,"indices":8}]},{"primitives":[{"mode":4,"attributes":{"POSITION":13,"NORMAL":14,"TEXCOORD_0":15},"material":3,"indices":12}]},{"primitives":[{"mode":4,"attributes":{"POSITION":17,"NORMAL":18,"TEXCOORD_0":19},"material":4,"indices":16}]},{"primitives":[{"mode":4,"attributes":{"POSITION":21,"NORMAL":22,"TEXCOORD_0":23},"material":5,"indices":20}]},{"primitives":[{"mode":4,"attributes":{"POSITION":25,"NORMAL":26},"material":6,"indices":24}]},{"primitives":[{"mode":4,"attributes":{"POSITION":28,"NORMAL":29},"material":7,"indices":27}]},{"primitives":[{"mode":4,"attributes":{"POSITION":31,"NORMAL":32},"material":8,"indices":30}]},{"primitives":[{"mode":4,"attributes":{"POSITION":34,"NORMAL":35},"material":9,"indices":33}]},{"primitives":[{"mode":4,"attributes":{"POSITION":37,"NORMAL":38},"material":10,"indices":36}]},{"primitives":[{"mode":4,"attributes":{"POSITION":40,"NORMAL":41},"material":11,"indices":39}]},{"primitives":[{"mode":4,"attributes":{"POSITION":43,"NORMAL":44},"material":12,"indices":42}]},{"primitives":[{"mode":4,"attributes":{"POSITION":46,"NORMAL":47},"material":13,"indices":45}]},{"primitives":[{"mode":4,"attributes":{"POSITION":49,"NORMAL":50},"material":14,"indices":48}]},{"primitives":[{"mode":4,"attributes":{"POSITION":52,"NORMAL":53},"material":15,"indices":51}]}],"accessors":[{"bufferView":0,"byteOffset":0,"componentType":5125,"count":6,"type":"SCALAR"},{"bufferView":1,"byteOffset":0,"componentType":5126,"count":4,"max":[50,50,0],"min":[-50,-50,0],"type":"VEC3"},{"bufferView":2,"byteOffset":0,"componentType":5126,"count":4,"type":"VEC3"},{"bufferView":3,"byteOffset":0,"componentType":5126,"count":4,"type":"VEC2"},{"bufferView":4,"byteOffset":0,"componentType":5125,"count":10272,"type":"SCALAR"},{"bufferView":5,"byteOffset":0,"componentType":5126,"count":1809,"max":[3.234900951385498,14.03050422668457,2.2373011112213135],"min":[-3.2189009189605713,0.5034000277519226,-1.3872979879379272],"type":"VEC3"},{"bufferView":6,"byteOffset":0,"componentType":5126,"count":1809,"type":"VEC3"},{"bufferView":7,"byteOffset":0,"componentType":5126,"count":1809,"type":"VEC2"},{"bufferView":8,"byteOffset":0,"componentType":5125,"count":7200,"type":"SCALAR"},{"bufferView":9,"byteOffset":0,"componentType":5126,"count":1419,"max":[2.8742339611053467,13.437602996826172,-1.8832319974899292],"min":[1.8643009662628174,12.462137222290039,-2.1561450958251953],"type":"VEC3"},{"bufferView":10,"byteOffset":0,"componentType":5126,"count":1419,"type":"VEC3"},{"bufferView":11,"byteOffset":0,"componentType":5126,"count":1419,"type":"VEC2"},{"bufferView":12,"byteOffset":0,"componentType":5125,"count":7200,"type":"SCALAR"},{"bufferView":13,"byteOffset":0,"componentType":5126,"count":1419,"max":[1.5377000570297241,12.692971229553223,-1.68123197555542],"min":[0.5181999802589417,11.708138465881348,-1.9554259777069092],"type":"VEC3"},{"bufferView":14,"byteOffset":0,"componentType":5126,"count":1419,"type":"VEC3"},{"bufferView":15,"byteOffset":0,"componentType":5126,"count":1419,"type":"VEC2"},{"bufferView":16,"byteOffset":0,"componentType":5125,"count":7200,"type":"SCALAR"},{"bufferView":17,"byteOffset":0,"componentType":5126,"count":1419,"max":[2.8742339611053467,11.938972473144531,-1.481665015220642],"min":[1.8643009662628174,10.963502883911133,-1.7546260356903076],"type":"VEC3"},{"bufferView":18,"byteOffset":0,"componentType":5126,"count":1419,"type":"VEC3"},{"bufferView":19,"byteOffset":0,"componentType":5126,"count":1419,"type":"VEC2"},{"bufferView":20,"byteOffset":0,"componentType":5125,"count":1368,"type":"SCALAR"},{"bufferView":21,"byteOffset":0,"componentType":5126,"count":285,"max":[1.3185210227966309,13.536233901977539,-1.926048994064331],"min":[0.7373790144920349,12.96917724609375,-2.1004700660705566],"type":"VEC3"},{"bufferView":22,"byteOffset":0,"componentType":5126,"count":285,"type":"VEC3"},{"bufferView":23,"byteOffset":0,"componentType":5126,"count":285,"type":"VEC2"},{"bufferView":24,"byteOffset":0,"componentType":5125,"count":19200,"type":"SCALAR"},{"bufferView":25,"byteOffset":0,"componentType":5126,"count":3445,"max":[3.523000955581665,14.280806541442871,2.294234037399292],"min":[-3.507002115249634,0.22659999132156372,-1.5070979595184326],"type":"VEC3"},{"bufferView":26,"byteOffset":0,"componentType":5126,"count":3445,"type":"VEC3"},{"bufferView":27,"byteOffset":0,"componentType":5125,"count":4032,"type":"SCALAR"},{"bufferView":28,"byteOffset":0,"componentType":5126,"count":720,"max":[0.47236698865890503,0.8771000504493713,2.0819010734558105],"min":[-0.45636695623397827,0.13439999520778656,1.6486999988555908],"type":"VEC3"},{"bufferView":29,"byteOffset":0,"componentType":5126,"count":720,"type":"VEC3"},{"bufferView":30,"byteOffset":0,"componentType":5125,"count":37440,"type":"SCALAR"},{"bufferView":31,"byteOffset":0,"componentType":5126,"count":6480,"max":[2.9968008995056152,13.566094398498535,-1.3131990432739258],"min":[0.4004000127315521,10.846898078918457,-2.18163800239563],"type":"VEC3"},{"bufferView":32,"byteOffset":0,"componentType":5126,"count":6480,"type":"VEC3"},{"bufferView":33,"byteOffset":0,"componentType":5125,"count":23040,"type":"SCALAR"},{"bufferView":34,"byteOffset":0,"componentType":5126,"count":4080,"max":[2.8886680603027344,13.451537132263184,-1.477964997291565],"min":[0.5085330009460449,10.949569702148438,-2.164125919342041],"type":"VEC3"},{"bufferView":35,"byteOffset":0,"componentType":5126,"count":4080,"type":"VEC3"},{"bufferView":36,"byteOffset":0,"componentType":5125,"count":1584,"type":"SCALAR"},{"bufferView":37,"byteOffset":0,"componentType":5126,"count":331,"max":[1.4905550479888916,13.993717193603516,-1.2925770282745361],"min":[-1.539551019668579,10.9057035446167,-1.5653431415557861],"type":"VEC3"},{"bufferView":38,"byteOffset":0,"componentType":5126,"count":331,"type":"VEC3"},{"bufferView":39,"byteOffset":0,"componentType":5125,"count":25776,"type":"SCALAR"},{"bufferView":40,"byteOffset":0,"componentType":5126,"count":4462,"max":[3.5080347061157227,7.05666971206665,3.7951560020446777],"min":[-3.5080347061157227,-7.056670188903809,-2.384185648907078e-8],"type":"VEC3"},{"bufferView":41,"byteOffset":0,"componentType":5126,"count":4462,"type":"VEC3"},{"bufferView":42,"byteOffset":0,"componentType":5125,"count":14376,"type":"SCALAR"},{"bufferView":43,"byteOffset":0,"componentType":5126,"count":2571,"max":[1.4178005456924438,1.475602626800537,0.8424659967422485],"min":[-1.4178005456924438,-1.4756020307540894,-7.152556946721234e-8],"type":"VEC3"},{"bufferView":44,"byteOffset":0,"componentType":5126,"count":2571,"type":"VEC3"},{"bufferView":45,"byteOffset":0,"componentType":5125,"count":6912,"type":"SCALAR"},{"bufferView":46,"byteOffset":0,"componentType":5126,"count":1178,"max":[0.7211669683456421,0.05209749564528465,0.17395511269569397],"min":[-0.7211669683456421,-0.05209749564528465,-4.7683716530855236e-8],"type":"VEC3"},{"bufferView":47,"byteOffset":0,"componentType":5126,"count":1178,"type":"VEC3"},{"bufferView":48,"byteOffset":0,"componentType":5125,"count":109836,"type":"SCALAR"},{"bufferView":49,"byteOffset":0,"componentType":5126,"count":19101,"max":[3.6242010593414307,14.329916954040527,2.287259101867676],"min":[-3.6082022190093994,0.0020409999415278435,-2.1906089782714844],"type":"VEC3"},{"bufferView":50,"byteOffset":0,"componentType":5126,"count":19101,"type":"VEC3"},{"bufferView":51,"byteOffset":0,"componentType":5125,"count":8700,"type":"SCALAR"},{"bufferView":52,"byteOffset":0,"componentType":5126,"count":1753,"max":[3.5830018520355225,14.329916000366211,2.287259101867676],"min":[-3.5670011043548584,0.0020409999415278435,-2.1906089782714844],"type":"VEC3"},{"bufferView":53,"byteOffset":0,"componentType":5126,"count":1753,"type":"VEC3"}],"bufferViews":[{"buffer":0,"byteOffset":0,"byteLength":24,"target":34963},{"buffer":0,"byteOffset":24,"byteLength":48,"target":34962},{"buffer":0,"byteOffset":72,"byteLength":48,"target":34962},{"buffer":0,"byteOffset":120,"byteLength":32,"target":34962},{"buffer":0,"byteOffset":152,"byteLength":41088,"target":34963},{"buffer":0,"byteOffset":41240,"byteLength":21708,"target":34962},{"buffer":0,"byteOffset":62948,"byteLength":21708,"target":34962},{"buffer":0,"byteOffset":84656,"byteLength":14472,"target":34962},{"buffer":0,"byteOffset":99128,"byteLength":28800,"target":34963},{"buffer":0,"byteOffset":127928,"byteLength":17028,"target":34962},{"buffer":0,"byteOffset":144956,"byteLength":17028,"target":34962},{"buffer":0,"byteOffset":161984,"byteLength":11352,"target":34962},{"buffer":0,"byteOffset":173336,"byteLength":28800,"target":34963},{"buffer":0,"byteOffset":202136,"byteLength":17028,"target":34962},{"buffer":0,"byteOffset":219164,"byteLength":17028,"target":34962},{"buffer":0,"byteOffset":236192,"byteLength":11352,"target":34962},{"buffer":0,"byteOffset":247544,"byteLength":28800,"target":34963},{"buffer":0,"byteOffset":276344,"byteLength":17028,"target":34962},{"buffer":0,"byteOffset":293372,"byteLength":17028,"target":34962},{"buffer":0,"byteOffset":310400,"byteLength":11352,"target":34962},{"buffer":0,"byteOffset":321752,"byteLength":5472,"target":34963},{"buffer":0,"byteOffset":327224,"byteLength":3420,"target":34962},{"buffer":0,"byteOffset":330644,"byteLength":3420,"target":34962},{"buffer":0,"byteOffset":334064,"byteLength":2280,"target":34962},{"buffer":0,"byteOffset":336344,"byteLength":76800,"target":34963},{"buffer":0,"byteOffset":413144,"byteLength":41340,"target":34962},{"buffer":0,"byteOffset":454484,"byteLength":41340,"target":34962},{"buffer":0,"byteOffset":495824,"byteLength":16128,"target":34963},{"buffer":0,"byteOffset":511952,"byteLength":8640,"target":34962},{"buffer":0,"byteOffset":520592,"byteLength":8640,"target":34962},{"buffer":0,"byteOffset":529232,"byteLength":149760,"target":34963},{"buffer":0,"byteOffset":678992,"byteLength":77760,"target":34962},{"buffer":0,"byteOffset":756752,"byteLength":77760,"target":34962},{"buffer":0,"byteOffset":834512,"byteLength":92160,"target":34963},{"buffer":0,"byteOffset":926672,"byteLength":48960,"target":34962},{"buffer":0,"byteOffset":975632,"byteLength":48960,"target":34962},{"buffer":0,"byteOffset":1024592,"byteLength":6336,"target":34963},{"buffer":0,"byteOffset":1030928,"byteLength":3972,"target":34962},{"buffer":0,"byteOffset":1034900,"byteLength":3972,"target":34962},{"buffer":0,"byteOffset":1038872,"byteLength":103104,"target":34963},{"buffer":0,"byteOffset":1141976,"byteLength":53544,"target":34962},{"buffer":0,"byteOffset":1195520,"byteLength":53544,"target":34962},{"buffer":0,"byteOffset":1249064,"byteLength":57504,"target":34963},{"buffer":0,"byteOffset":1306568,"byteLength":30852,"target":34962},{"buffer":0,"byteOffset":1337420,"byteLength":30852,"target":34962},{"buffer":0,"byteOffset":1368272,"byteLength":27648,"target":34963},{"buffer":0,"byteOffset":1395920,"byteLength":14136,"target":34962},{"buffer":0,"byteOffset":1410056,"byteLength":14136,"target":34962},{"buffer":0,"byteOffset":1424192,"byteLength":439344,"target":34963},{"buffer":0,"byteOffset":1863536,"byteLength":229212,"target":34962},{"buffer":0,"byteOffset":2092748,"byteLength":229212,"target":34962},{"buffer":0,"byteOffset":2321960,"byteLength":34800,"target":34963},{"buffer":0,"byteOffset":2356760,"byteLength":21036,"target":34962},{"buffer":0,"byteOffset":2377796,"byteLength":21036,"target":34962}],"scene":0,"scenes":[{"nodes":[0,1,2,18],"name":"Phone 1 (template)"}],"extensionsUsed":["KHR_texture_transform"],"buffers":[{"byteLength":2398832,"uri":"scene.bin"}]}