<svg width="1080" height="1080" viewBox="0 0 1080 1080" fill="none" xmlns="http://www.w3.org/2000/svg">
<rect width="1080" height="1080" rx="540" fill="white"/>
<path d="M332.419 833.251C393.144 876.181 465.683 899.233 540.051 899.233C614.418 899.233 686.957 876.181 747.683 833.251H711.701C660.235 865.442 600.754 882.511 540.051 882.511C479.347 882.511 419.866 865.442 368.4 833.251H332.419Z" fill="#30017E"/>
<path fill-rule="evenodd" clip-rule="evenodd" d="M815.09 353.966C792.193 344.687 765.144 340.048 733.942 340.048H574.451V739.055H677.149V603.471H722.704L789.5 739.055H899.717V734.677L818.638 575.529C828.926 570.271 838.256 564.358 846.629 557.79C859.199 547.988 869.002 535.38 876.035 519.966C883.069 504.552 886.586 484.948 886.586 461.153C886.586 434.665 880.375 412.479 867.954 394.596C855.533 376.713 837.912 363.169 815.09 353.966ZM677.149 520.415H732.819C744.118 520.415 753.583 518.582 761.216 514.915C768.773 511.249 774.422 505.824 778.164 498.641C781.905 491.383 783.775 482.478 783.775 471.928C783.775 456.589 779.585 444.617 771.205 436.012C762.824 427.407 750.403 423.104 733.942 423.104H677.149V520.415Z" fill="#30017E"/>
<path d="M283.194 508.293L414.961 739.055H517.435V340.048H414.961V570.81L283.194 340.048H180.384V739.055H283.194V508.293Z" fill="#30017E"/>
<path d="M332.419 245.851C393.144 202.921 465.683 179.87 540.051 179.87C614.418 179.87 686.957 202.921 747.683 245.851H711.701C660.235 213.661 600.754 196.592 540.051 196.592C479.347 196.592 419.866 213.661 368.4 245.851H332.419Z" fill="#30017E"/>
</svg>
